<svg width="25" height="25" viewBox="0 0 25 25" fill="none" xmlns="http://www.w3.org/2000/svg"><g clip-path="url(#clip0_3628_3006)"><g clip-path="url(#clip1_3628_3006)" stroke="#222325" stroke-width="1.5" stroke-linecap="round" stroke-linejoin="round"><path d="M23.918 9v11.75a2.25 2.25 0 01-2.25 2.25h-18a2.25 2.25 0 01-2.25-2.25V5.25A2.25 2.25 0 013.668 3h10.5"/><path d="M6.668 18.25l8.25-8.25 4.5 8.25H6.668zm.375-6.75a1.875 1.875 0 100-3.75 1.875 1.875 0 000 3.75z"/></g><path d="M23.918 5.25A3.75 3.75 0 0020.168 9a3.75 3.75 0 00-3.75-3.75 3.75 3.75 0 003.75-3.75 3.75 3.75 0 003.75 3.75z" fill="#222325"/><path fill-rule="evenodd" clip-rule="evenodd" d="M20.168.75a.75.75 0 01.75.75 3 3 0 003 3 .75.75 0 010 1.5 3 3 0 00-3 3 .75.75 0 01-1.5 0 3 3 0 00-3-3 .75.75 0 010-1.5 3 3 0 003-3 .75.75 0 01.75-.75zm0 3.238c-.332.5-.762.93-1.262 1.262.5.332.93.762 1.262 1.262.332-.5.762-.93 1.262-1.262-.5-.332-.93-.762-1.262-1.262z" fill="#222325"/></g><defs><clipPath id="clip0_3628_3006"><path fill="#fff" transform="translate(.668)" d="M0 0h24v25H0z"/></clipPath><clipPath id="clip1_3628_3006"><path fill="#fff" transform="translate(.668 1)" d="M0 0h24v24H0z"/></clipPath></defs></svg>