<svg xmlns="http://www.w3.org/2000/svg" width="28" height="23" viewBox="0 0 28 23" fill="none"><path d="M20.003 7.317a2.513 2.513 0 105.026 0 2.513 2.513 0 00-5.026 0zm-3.545 10.838A6.06 6.06 0 0127 14.076M7.859 7.317a2.513 2.513 0 11-5.027 0 2.513 2.513 0 015.027 0zm3.544 10.838A6.06 6.06 0 00.861 14.076" stroke="#212121" stroke-width="1.5" stroke-linecap="round" stroke-linejoin="round"/><path d="M13.955 8.654a3.594 3.594 0 100-7.188 3.594 3.594 0 000 7.188zM14 11.745c-5.523 0-10 4.477-10 10h20c0-5.523-4.478-10-10-10z" fill="#fff" stroke="#212121" stroke-width="1.5" stroke-linecap="round" stroke-linejoin="round"/></svg>