<svg xmlns="http://www.w3.org/2000/svg" width="29" height="27" viewBox="0 0 29 27" fill="none"><path d="M10.331 17.8a2.8 2.8 0 100-5.6 2.8 2.8 0 000 5.6zm-5.597 8.4a5.6 5.6 0 1111.2 0" stroke="#212121" stroke-width="1.5" stroke-linecap="round" stroke-linejoin="round"/><path d="M11.5 6.6H3a2 2 0 00-2 2v15.6a2 2 0 002 2h20.5a2 2 0 002-2V15" stroke="#212121" stroke-width="1.5" stroke-linecap="round" stroke-linejoin="round"/><path d="M14.93 2.867V9.4c0 1.031.835 1.867 1.866 1.867h.934v2.8l4.666-2.8h3.734A1.866 1.866 0 0027.996 9.4V2.867A1.866 1.866 0 0026.13 1h-9.334a1.866 1.866 0 00-1.866 1.867z" stroke="#212121" stroke-width="1.5" stroke-linecap="round" stroke-linejoin="round"/><path d="M19.6 6.833l1.4 1.4 2.754-3.214.045-.053" stroke="#212121" stroke-width="1.5" stroke-linecap="round" stroke-linejoin="round"/></svg>