<svg xmlns="http://www.w3.org/2000/svg" width="25" height="26" viewBox="0 0 25 26" fill="none"><rect x=".75" y=".75" width="14.5" height="24.5" rx="1.65" fill="#fff" stroke="#222325" stroke-width="1.5"/><rect x="4" y="21" width="8" height="1.5" rx=".75" fill="#222325"/><g filter="url(#filter0_b_3088_6908)"><path fill-rule="evenodd" clip-rule="evenodd" d="M11 4a1 1 0 00-1 1v10a1 1 0 001 1h.685v2.009c0 .413.475.645.801.392L15.573 16H23a1 1 0 001-1V5a1 1 0 00-1-1H11z" fill="#fff"/><path d="M11.685 16h.75v-.75h-.75V16zm.801 2.4l.46.593-.46-.592zm3.087-2.4v-.75h-.258l-.203.158.46.592zM10.75 5a.25.25 0 01.25-.25v-1.5A1.75 1.75 0 009.25 5h1.5zm0 10V5h-1.5v10h1.5zm.25.25a.25.25 0 01-.25-.25h-1.5c0 .966.784 1.75 1.75 1.75v-1.5zm.685 0H11v1.5h.685v-1.5zm.75 2.759V16h-1.5v2.009h1.5zm-.41-.2a.254.254 0 01.41.2h-1.5c0 1.037 1.193 1.62 2.012.984l-.921-1.184zm3.087-2.401l-3.086 2.4.92 1.185 3.087-2.401-.92-1.184zM23 15.25h-7.427v1.5H23v-1.5zm.25-.25a.25.25 0 01-.25.25v1.5A1.75 1.75 0 0024.75 15h-1.5zm0-10v10h1.5V5h-1.5zM23 4.75a.25.25 0 01.25.25h1.5A1.75 1.75 0 0023 3.25v1.5zm-12 0h12v-1.5H11v1.5z" fill="#222325"/></g><path d="M17.002 13.333c-.252-.192-.498-.378-.741-.568-.644-.504-1.278-1.02-1.847-1.6a5.104 5.104 0 01-.638-.757c-.308-.471-.34-.995-.185-1.52.185-.631.593-1.088 1.26-1.303.718-.232 1.51.022 1.99.622.054.07.103.142.163.225l.068-.098c.293-.424.692-.709 1.223-.801.626-.109 1.161.074 1.606.494.6.567.773 1.52.412 2.247-.143.286-.36.523-.584.754-.65.674-1.381 1.266-2.124 1.846-.195.152-.395.3-.604.46h.001z" fill="#222325"/><defs><filter id="filter0_b_3088_6908" x="2.947" y="-3.053" width="28.107" height="28.614" filterUnits="userSpaceOnUse" color-interpolation-filters="sRGB"><feFlood flood-opacity="0" result="BackgroundImageFix"/><feGaussianBlur in="BackgroundImageFix" stdDeviation="3.152"/><feComposite in2="SourceAlpha" operator="in" result="effect1_backgroundBlur_3088_6908"/><feBlend in="SourceGraphic" in2="effect1_backgroundBlur_3088_6908" result="shape"/></filter></defs></svg>