<svg xmlns="http://www.w3.org/2000/svg" width="28" height="28" viewBox="0 0 28 28" fill="none"><path d="M24.301 24.909c.334 0 .606-.307.606-.682V3.773c0-.375-.272-.682-.606-.682H3.695c-.333 0-.606.307-.606.682v20.454c0 .375.273.682.606.682h20.606z" stroke="#222325" stroke-width="1.5" stroke-miterlimit="10" stroke-linejoin="round"/><path d="M19.072 14l-.442-.606-.829.605.829.606.442-.605zm-5.075 5.077l.606-.443-.606-.827-.605.827.605.443zM8.92 14.001l.443.605.827-.606-.828-.604L8.92 14zm5.075-5.075l-.605.442.605.83.606-.83-.606-.442zm-.794 5.072l-.443-.605-.828.606.829.604.442-.605zm.797.795l-.606.443.606.828.605-.828-.605-.443zm.795-.794l.443.605.829-.605-.83-.606-.442.606zm-.797-.798l.606-.442-.606-.83-.606.83.606.442zm5.519 1.404a4.39 4.39 0 00.517-.443l-1.06-1.06a2.906 2.906 0 01-.342.292l.885 1.211zm.516-.768a4.407 4.407 0 00-.516-.443l-.885 1.211c.119.087.233.184.34.292l1.061-1.06zm0 6.198a4.382 4.382 0 000-6.198l-1.06 1.06a2.883 2.883 0 010 4.077l1.06 1.06zm-6.198 0a4.383 4.383 0 006.198 0l-1.06-1.061a2.882 2.882 0 01-4.077 0l-1.06 1.06zm-.441-.515c.132.18.279.352.441.515l1.06-1.061a2.909 2.909 0 01-.29-.34l-1.211.886zm0-.886a2.902 2.902 0 01-.29.34l1.06 1.06c.162-.162.309-.334.44-.514l-1.21-.886zm-.29.34a2.883 2.883 0 01-4.077 0l-1.061 1.06a4.383 4.383 0 006.198 0l-1.06-1.06zm-4.077 0a2.883 2.883 0 010-4.077l-1.061-1.061a4.383 4.383 0 000 6.198l1.06-1.06zm0-4.077c.107-.108.22-.204.338-.29l-.886-1.21c-.18.13-.351.277-.513.439l1.06 1.06zm-1.066-.734c.163.163.337.312.519.444l.884-1.211a2.911 2.911 0 01-.342-.294l-1.061 1.06zm0-6.198a4.383 4.383 0 000 6.198l1.06-1.06a2.883 2.883 0 010-4.077L7.96 7.965zm6.198 0a4.383 4.383 0 00-6.198 0l1.06 1.06a2.883 2.883 0 014.077 0l1.06-1.06zm.444.519a4.412 4.412 0 00-.444-.519l-1.06 1.06c.108.11.205.224.293.343l1.211-.884zm-.766-.52a4.406 4.406 0 00-.446.52l1.212.884c.088-.12.185-.235.294-.343l-1.06-1.061zm6.197 0a4.383 4.383 0 00-6.197 0l1.06 1.06a2.883 2.883 0 014.077 0l1.06-1.06zm0 6.198a4.383 4.383 0 000-6.198l-1.06 1.06a2.883 2.883 0 010 4.077l1.06 1.06zm-7.273.441c.12.088.234.185.342.294l1.06-1.061a4.41 4.41 0 00-.518-.444l-.884 1.211zm.342.294c.108.107.205.22.291.34l1.211-.886a4.399 4.399 0 00-.441-.515l-1.06 1.06zm.732-1.06a4.407 4.407 0 00-.44.513l1.21.886c.087-.118.183-.231.29-.339l-1.06-1.06zm.518-.444c-.181.132-.355.28-.518.444l1.06 1.06c.11-.108.223-.206.343-.293l-.885-1.211zm-.516.769c.162.162.335.31.516.442l.885-1.21a2.916 2.916 0 01-.34-.293l-1.061 1.06zm-.445-.519c.133.182.281.355.445.519l1.06-1.06a2.917 2.917 0 01-.293-.343l-1.212.884zm.767.52c.164-.164.312-.338.445-.52l-1.212-.884c-.087.12-.185.234-.294.343l1.06 1.06zm-.513.44a4.42 4.42 0 00.513-.44l-1.06-1.06a2.982 2.982 0 01-.34.29l.887 1.21z" fill="#222325"/><circle cx="13.998" cy="14" r="2.045" transform="rotate(-45 13.998 14)" fill="#222325"/><path fill="#fff" stroke="#222325" stroke-width="1.5" stroke-linejoin="round" d="M1.25 1.25h3.682v3.682H1.25zm21.818 0h3.682v3.682h-3.682zM1.25 23.068h3.682v3.682H1.25zm21.818 0h3.682v3.682h-3.682z"/></svg>