<svg xmlns="http://www.w3.org/2000/svg" width="26" height="25" viewBox="0 0 26 25" fill="none"><path d="M17.892 18.866v-1.474h.525a4.475 4.475 0 100-8.95h0-.005c-.071 0-.142.002-.212.006a5.716 5.716 0 00-10.398 0 4.445 4.445 0 00-.212-.006h0-.006 0a4.475 4.475 0 000 8.95h.525v1.474L6.6 20.376A2.392 2.392 0 107.625 21.4l1.722-1.722a.725.725 0 00.212-.512V17.39h2.717v2.83a2.393 2.393 0 101.45 0v-2.83h2.716v1.776c0 .192.077.376.213.512l1.721 1.722a2.392 2.392 0 101.025-1.025l-1.509-1.51zM6.166 21.833h0l.001.002.008.007v.001a.942.942 0 11-.018-.018h.001l.008.008zm13.668.002h0l.002-.002.009-.009a.942.942 0 11-.02.02l.01-.009zM10.51 7.361a4.267 4.267 0 016.535 2.106c.116.345.47.55.827.48a2.96 2.96 0 01.548-.055 3.025 3.025 0 01-.003 6.05H7.584a3.025 3.025 0 01-.003-6.05c.184.001.368.02.548.055a.724.724 0 00.827-.48A4.267 4.267 0 0110.51 7.36zM12.06 22.5a.942.942 0 111.883 0 .942.942 0 01-1.883 0z" fill="#222325" stroke="#222325" stroke-width=".2" stroke-linecap="round" stroke-linejoin="round"/><path d="M24.333 17c.367 0 .667-.225.667-.5v-15c0-.275-.3-.5-.667-.5H1.667C1.3 1 1 1.225 1 1.5v15c0 .275.3.5.667.5h22.666z" fill="#fff" stroke="#222325" stroke-width="1.5" stroke-miterlimit="10" stroke-linejoin="round"/><rect x="4" y="4" width="18" height="1.5" rx=".75" fill="#222325"/></svg>