<svg xmlns="http://www.w3.org/2000/svg" width="26" height="26" viewBox="0 0 26 26" fill="none"><path d="M20.444 24c.306 0 .556-.225.556-.5v-15c0-.275-.25-.5-.556-.5H1.556C1.25 8 1 8.225 1 8.5v15c0 .275.25.5.556.5h18.888z" stroke="#222325" stroke-width="1.5" stroke-miterlimit="10" stroke-linejoin="round"/><path d="M24.444 18c.306 0 .556-.225.556-.5v-15c0-.275-.25-.5-.556-.5H5.556C5.25 2 5 2.225 5 2.5v15c0 .275.25.5.556.5h18.888z" fill="#fff" stroke="#222325" stroke-width="1.5" stroke-miterlimit="10" stroke-linejoin="round"/><path d="M12 7l6 3-6 3V7z" fill="#222325" stroke="#212121" stroke-width="1.5" stroke-linecap="round" stroke-linejoin="round"/></svg>