<svg xmlns="http://www.w3.org/2000/svg" width="30" height="27" viewBox="0 0 30 27" fill="none"><path fill-rule="evenodd" clip-rule="evenodd" d="M1.327 1.066A2.545 2.545 0 013.184.25h11.111c.706 0 1.373.3 1.857.816.482.514.745 1.202.745 1.91v5.688h-1.5V2.975c0-.34-.127-.657-.34-.883a1.045 1.045 0 00-.762-.342H3.184c-.276 0-.551.117-.762.342a1.29 1.29 0 00-.34.883V13.84c0 .34.127.658.34.884.21.225.486.342.762.342h8.157v1.5H3.184c-.706 0-1.373-.3-1.857-.816a2.794 2.794 0 01-.745-1.91V2.975c0-.707.263-1.395.745-1.91z" fill="#222325"/><path fill-rule="evenodd" clip-rule="evenodd" d="M16.145 11.935c-.276 0-.552.117-.762.342a1.29 1.29 0 00-.34.883v10.865c0 .34.127.657.34.883.21.225.486.342.762.342h11.11c.277 0 .552-.117.763-.342a1.29 1.29 0 00.34-.883V13.16c0-.34-.127-.657-.34-.883a1.045 1.045 0 00-.762-.342H16.145zm-1.857-.684a2.545 2.545 0 011.857-.816h11.11c.707 0 1.374.3 1.858.816.482.514.745 1.202.745 1.91v10.864c0 .707-.263 1.395-.745 1.91a2.545 2.545 0 01-1.857.815H16.145c-.706 0-1.373-.3-1.857-.816a2.794 2.794 0 01-.745-1.91V13.16c0-.707.263-1.395.745-1.91z" fill="#222325"/><path fill-rule="evenodd" clip-rule="evenodd" d="M23.793 22.762h1.764l-3.118-8.073h-1.587l-3.149 8.073h1.765l.85-2.26h2.635l.84 2.26zm-2.941-3.704l.788-2.113.78 2.113h-1.568z" fill="#222325"/><path d="M13.08 6.517a13.384 13.384 0 00-1.314-.056 7.268 7.268 0 01-.63 1.786 6.849 6.849 0 01-1.027 1.5 8.89 8.89 0 003.174 1.119 5.95 5.95 0 00-.916 1.703 11.435 11.435 0 01-3.526-1.685 11.83 11.83 0 01-3.684 1.703 5.364 5.364 0 00-.887-1.638 10.067 10.067 0 003.285-1.212A8.055 8.055 0 016.36 8.042a8.12 8.12 0 01-.639-1.583c-.546 0-.86.019-1.323.056V4.842c.446.048.894.07 1.342.065h2.045V4.35a2.794 2.794 0 00-.055-.573h1.86a2.84 2.84 0 00-.056.564v.565h2.202c.448.005.897-.017 1.343-.065v1.675zM7.5 6.46A5.268 5.268 0 008.795 8.7c.563-.641.96-1.41 1.158-2.24H7.499z" fill="#222325"/></svg>